<svg width="281" height="53" viewBox="0 0 281 53" fill="none" xmlns="http://www.w3.org/2000/svg">
<rect width="11.3176" height="42.3613" rx="5.6588" transform="matrix(0.933794 -0.357811 0.356442 0.934317 0 13.4208)" fill="white"/>
<rect width="11.3176" height="42.3613" rx="5.6588" transform="matrix(0.933794 -0.357811 0.356442 0.934317 0 13.4208)" fill="white"/>
<rect width="11.3176" height="42.3613" rx="5.6588" transform="matrix(0.933794 -0.357811 0.356442 0.934317 0 13.4208)" fill="white"/>
<rect width="11.3176" height="42.3613" rx="5.6588" transform="matrix(0.933818 0.357749 -0.35638 0.934341 40.7031 9.37125)" fill="white"/>
<rect width="11.3176" height="42.3613" rx="5.6588" transform="matrix(0.933818 0.357749 -0.35638 0.934341 40.7031 9.37125)" fill="white"/>
<rect width="11.3176" height="42.3613" rx="5.6588" transform="matrix(0.933818 0.357749 -0.35638 0.934341 40.7031 9.37125)" fill="white"/>
<rect width="12.3033" height="35.4968" rx="6.15166" transform="matrix(0.956969 0.29019 -0.289024 0.957322 20.9784 15.3393)" fill="white"/>
<rect width="12.3033" height="35.4968" rx="6.15166" transform="matrix(0.956969 0.29019 -0.289024 0.957322 20.9784 15.3393)" fill="white"/>
<rect width="12.3033" height="35.4968" rx="6.15166" transform="matrix(0.956969 0.29019 -0.289024 0.957322 20.9784 15.3393)" fill="white"/>
<rect width="12.304" height="35.4947" rx="6.15202" transform="matrix(0.942806 -0.333342 0.332042 0.943264 17.2694 19.4407)" fill="white"/>
<rect width="12.304" height="35.4947" rx="6.15202" transform="matrix(0.942806 -0.333342 0.332042 0.943264 17.2694 19.4407)" fill="white"/>
<rect width="12.304" height="35.4947" rx="6.15202" transform="matrix(0.942806 -0.333342 0.332042 0.943264 17.2694 19.4407)" fill="white"/>
<path d="M52.6983 11.1801C54.6419 11.1801 56.2942 9.62789 56.2942 7.61948C56.2942 5.61108 54.6419 4.05884 52.6983 4.05884C50.7547 4.05884 49.1024 5.61108 49.1024 7.61948C49.1024 9.62789 50.7547 11.1801 52.6983 11.1801Z" stroke="white" stroke-width="4"/>
<path d="M71.2764 49L61.8684 15.4H68.8284L75.2604 40.312L82.2684 15.4H87.9324L94.9884 40.312L101.42 15.4H108.38L98.9724 49H91.4364L85.1004 26.824L78.8124 49H71.2764ZM129.522 46.024C127.058 48.456 124.05 49.672 120.498 49.672C116.946 49.672 113.938 48.456 111.474 46.024C109.042 43.56 107.826 40.552 107.826 37C107.826 33.448 109.042 30.456 111.474 28.024C113.938 25.56 116.946 24.328 120.498 24.328C124.05 24.328 127.058 25.56 129.522 28.024C131.986 30.456 133.218 33.448 133.218 37C133.218 40.552 131.986 43.56 129.522 46.024ZM115.842 41.752C117.09 43 118.642 43.624 120.498 43.624C122.354 43.624 123.906 43 125.154 41.752C126.402 40.504 127.026 38.92 127.026 37C127.026 35.08 126.402 33.496 125.154 32.248C123.906 31 122.354 30.376 120.498 30.376C118.642 30.376 117.09 31 115.842 32.248C114.626 33.496 114.018 35.08 114.018 37C114.018 38.92 114.626 40.504 115.842 41.752ZM143.766 29.128C144.342 27.592 145.286 26.44 146.598 25.672C147.942 24.904 149.43 24.52 151.062 24.52V31.432C149.174 31.208 147.478 31.592 145.974 32.584C144.502 33.576 143.766 35.224 143.766 37.528V49H137.574V25H143.766V29.128ZM171.985 15.4H178.177V49H171.985V46.168C170.161 48.504 167.569 49.672 164.209 49.672C160.977 49.672 158.209 48.456 155.905 46.024C153.633 43.56 152.497 40.552 152.497 37C152.497 33.448 153.633 30.456 155.905 28.024C158.209 25.56 160.977 24.328 164.209 24.328C167.569 24.328 170.161 25.496 171.985 27.832V15.4ZM160.561 41.896C161.841 43.144 163.441 43.768 165.361 43.768C167.281 43.768 168.865 43.144 170.113 41.896C171.361 40.616 171.985 38.984 171.985 37C171.985 35.016 171.361 33.4 170.113 32.152C168.865 30.872 167.281 30.232 165.361 30.232C163.441 30.232 161.841 30.872 160.561 32.152C159.313 33.4 158.689 35.016 158.689 37C158.689 38.984 159.313 40.616 160.561 41.896ZM202.08 25H208.272V49H202.08V46.168C200.224 48.504 197.616 49.672 194.256 49.672C191.056 49.672 188.304 48.456 186 46.024C183.728 43.56 182.592 40.552 182.592 37C182.592 33.448 183.728 30.456 186 28.024C188.304 25.56 191.056 24.328 194.256 24.328C197.616 24.328 200.224 25.496 202.08 27.832V25ZM190.656 41.896C191.904 43.144 193.488 43.768 195.408 43.768C197.328 43.768 198.912 43.144 200.16 41.896C201.44 40.616 202.08 38.984 202.08 37C202.08 35.016 201.44 33.4 200.16 32.152C198.912 30.872 197.328 30.232 195.408 30.232C193.488 30.232 191.904 30.872 190.656 32.152C189.408 33.4 188.784 35.016 188.784 37C188.784 38.984 189.408 40.616 190.656 41.896ZM227.855 24.328C231.087 24.328 233.839 25.56 236.111 28.024C238.415 30.456 239.567 33.448 239.567 37C239.567 40.552 238.415 43.56 236.111 46.024C233.839 48.456 231.087 49.672 227.855 49.672C224.495 49.672 221.903 48.504 220.079 46.168V49H213.887V15.4H220.079V27.832C221.903 25.496 224.495 24.328 227.855 24.328ZM221.951 41.896C223.199 43.144 224.783 43.768 226.703 43.768C228.623 43.768 230.207 43.144 231.455 41.896C232.735 40.616 233.375 38.984 233.375 37C233.375 35.016 232.735 33.4 231.455 32.152C230.207 30.872 228.623 30.232 226.703 30.232C224.783 30.232 223.199 30.872 221.951 32.152C220.703 33.4 220.079 35.016 220.079 37C220.079 38.984 220.703 40.616 221.951 41.896ZM243.934 49V13.96H250.126V49H243.934ZM261.025 39.544C261.857 42.552 264.113 44.056 267.793 44.056C270.161 44.056 271.953 43.256 273.169 41.656L278.161 44.536C275.793 47.96 272.305 49.672 267.697 49.672C263.729 49.672 260.545 48.472 258.145 46.072C255.745 43.672 254.545 40.648 254.545 37C254.545 33.384 255.729 30.376 258.097 27.976C260.465 25.544 263.505 24.328 267.217 24.328C270.737 24.328 273.633 25.544 275.905 27.976C278.209 30.408 279.361 33.416 279.361 37C279.361 37.8 279.281 38.648 279.121 39.544H261.025ZM260.929 34.744H273.169C272.817 33.112 272.081 31.896 270.961 31.096C269.873 30.296 268.625 29.896 267.217 29.896C265.553 29.896 264.177 30.328 263.089 31.192C262.001 32.024 261.281 33.208 260.929 34.744Z" fill="white"/>
</svg>
